# AST/ASF file generated using VICON BodyLanguage
# -----------------------------------------------
:version 1.10
:name VICON
:units
  mass 1.0
  length 0.45
  angle deg
:documentation
   .ast/.asf automatically generated from VICON data using
   VICON BodyBuilder and BodyLanguage model FoxedUp or BRILLIANT.MOD
:root
   order TX TY TZ RX RY RZ
   axis XYZ
   position 0 0 0  
   orientation 0 0 0 
:bonedata
  begin
     id 1 
     name lhipjoint
     direction 0.707368 -0.647095 0.284426 
     length 2.60678 
     axis 0 0 0  XYZ
  end
  begin
     id 2 
     name lfemur
     direction 0.34202 -0.939693 0  
     length 6.63812  
     axis 0 0 20  XYZ
    dof rx ry rz
    limits (-160.0 20.0)
           (-70.0 70.0)
           (-60.0 70.0)
  end
  begin
     id 3 
     name ltibia
     direction 0.34202 -0.939693 0   
     length 7.51178   
     axis 0 0 20   XYZ
    dof rx
    limits (-10.0 170.0)
  end
  begin
     id 4 
     name lfoot
     direction 0.121251 -0.333133 0.935051   
     length 1.83716   
     axis -90 7.62852e-016 20   XYZ
    dof rx rz
    limits (-45.0 90.0)
           (-70.0 20.0)
  end
  begin
     id 5 
     name ltoes
     direction 1.53611e-011 -4.21962e-011 1   
     length 0.916133   
     axis -90 7.62852e-016 20   XYZ
    dof rx
    limits (-90.0 20.0)
  end
  begin
     id 6 
     name rhipjoint
     direction -0.692419 -0.660507 0.290321   
     length 2.55385  
     axis 0 0 0  XYZ 
  end
  begin
     id 7 
     name rfemur
     direction -0.34202 -0.939693 0   
     length 7.29079   
     axis 0 0 -20   XYZ
    dof rx ry rz
    limits (-160.0 20.0)
           (-70.0 70.0)
           (-70.0 60.0)
  end
  begin
     id 8 
     name rtibia
     direction -0.34202 -0.939693 0   
     length 7.47143   
     axis 0 0 -20   XYZ
    dof rx
    limits (-10.0 170.0)
 end
 begin
     id 9 
     name rfoot
     direction -0.119907 -0.329441 0.936532   
     length 1.79439  
     axis -90 -7.62852e-016 -20   XYZ
    dof rx rz
    limits (-45.0 90.0)
           (-20.0 70.0)
  end
  begin
     id 10 
     name rtoes
     direction -1.53571e-011 -4.21961e-011 1   
     length 0.896039   
     axis -90 -7.62852e-016 -20   XYZ
    dof rx
    limits (-90.0 20.0)
  end
  begin
     id 11 
     name lowerback
     direction 0.0367721 0.992912 -0.113016   
     length 1.73542   
     axis 0 0 0   XYZ
    dof rx ry rz
    limits (-20.0 45.0)
           (-30.0 30.0)
           (-30.0 30.0)
  end
  begin
     id 12 
     name upperback
     direction -0.000314626 0.990678 0.136227   
     length 1.7514   
     axis 0 0 0   XYZ
    dof rx ry rz
    limits (-20.0 45.0)
           (-30.0 30.0)
           (-30.0 30.0)
  end
  begin
     id 13 
     name thorax
     direction -0.0226159 0.981151 0.191917   
     length 1.71471   
     axis 0 0 0   XYZ
    dof rx ry rz
    limits (-20.0 45.0)
           (-30.0 30.0)
           (-30.0 30.0)
  end
  begin
     id 14 
     name lowerneck
     direction 0.0219333 0.998071 0.0580739   
     length 1.65882   
     axis 0 0 0   XYZ
    dof rx ry rz
    limits (-20.0 45.0)
           (-30.0 30.0)
           (-30.0 30.0)
  end
  begin
     id 15 
     name upperneck
     direction 0.0384529 0.980058 -0.194957   
     length 1.6612   
     axis 0 0 0   XYZ
    dof rx ry rz
    limits (-20.0 45.0)
           (-30.0 30.0)
           (-30.0 30.0)
  end
  begin
     id 16
     name head
     direction 0.00592123 0.997421 -0.0715234  
     length 1.68077  
     axis 0 0 0   XYZ
    dof rx ry rz
    limits (-20.0 45.0)
           (-30.0 30.0)
           (-30.0 30.0)
  end
  begin
     id 17 
     name lclavicle
     direction 0.904803 0.417826 0.0821728  
     length 3.42227  
     axis 0 0 0   XYZ
    dof ry rz
    limits (-20.0 10.0)
           (0.0 20.0)
  end
  begin
     id 18 
     name lhumerus
     direction 1 -4.48965e-011 -2.68786e-027   
     length 5.11878   
     axis -180 -30 -90   XYZ
    dof rx ry rz
    limits (-60.0 90.0)
           (-90.0 90.0)
           (-90.0 90.0)
  end
  begin
     id 19
     name lradius
     direction 1 -4.48965e-011 2.61168e-028   
     length 3.59971   
     axis -180 -30 -90   XYZ
    dof rx
    limits (-10.0 170.0)
  end
  begin
     id 20
     name lwrist
     direction 1 -4.48965e-011 1.58672e-027   
     length 1.79985   
     axis -1.65735e-015 90 90   XYZ
    dof ry
    limits (-180.0 0.0)
 end
  begin
     id 21 
     name lhand
     direction 1 -4.48942e-011 3.17344e-027   
     length 0.62877   
     axis -2.02492e-015 90 90   XYZ
    dof rx rz
    limits (-90.0 90.0)
           (-45.0 45.0)
  end
  begin
     id 22 
     name lfingers
     direction 1 -4.49011e-011 6.34687e-027   
     length 0.506931   
     axis -4.04985e-015 90 90   XYZ
    dof rx
    limits (0.0 90.0)
  end
  begin
     id 23
     name lthumb
     direction 0.707107 -6.34982e-011 0.707107   
     length 0.727854   
     axis -90 45 2.85299e-015   XYZ
    dof rx rz
    limits (-45.0 45.0)
           (-45.0 45.0)
  end
  begin
     id 24 
     name rclavicle
     direction -0.945647 0.32488 0.0143075   
     length 3.52737  
     axis 0 0 0   XYZ 
    dof ry rz
    limits (-10.0 20.0)
           (-20.0 0.0)
  end
  begin
     id 25 
     name rhumerus
     direction -1 -4.48962e-011 1.92182e-027  
     length 5.4902   
     axis -180 30 90   XYZ
    dof rx ry rz
    limits (-90.0 60.0)
           (-90.0 90.0)
           (-90.0 90.0)
  end
  begin
     id 26 
     name rradius
     direction -1 -4.48967e-011 -5.97193e-028   
     length 3.20659   
     axis -180 30 90   XYZ
    dof rx
    limits (-10.0 170.0)
  end
  begin
     id 27 
     name rwrist
     direction -1 -4.48964e-011 1.58672e-027   
     length 1.6033   
     axis -1.65735e-015 -90 -90   XYZ
    dof ry
    limits (-180.0 0.0)
  end
  begin
     id 28
     name rhand
     direction -1 -4.49006e-011 3.17344e-027   
     length 0.691885   
     axis -2.02492e-015 -90 -90   XYZ
    dof rx rz
    limits (-90.0 90.0)
           (-45.0 45.0)
  end
  begin
     id 29
     name rfingers
     direction -1 -4.48908e-011 6.34687e-027   
     length 0.557815   
     axis -4.04985e-015 -90 -90   XYZ
    dof rx
    limits (0.0 90.0)
  end
  begin
     id 30
     name rthumb
     direction -0.707107 -6.34999e-011 0.707107   
     length 0.800915   
     axis -90 -45 -2.85299e-015   XYZ
    dof rx rz
    limits (-45.0 45.0)
           (-45.0 45.0)
  end
:hierarchy
  begin
    root lhipjoint rhipjoint lowerback
    lhipjoint lfemur
    lfemur ltibia
    ltibia lfoot
    lfoot ltoes
    rhipjoint rfemur
    rfemur rtibia
    rtibia rfoot
    rfoot rtoes
    lowerback upperback
    upperback thorax
    thorax lowerneck lclavicle rclavicle
    lowerneck upperneck
    upperneck head
    lclavicle lhumerus
    lhumerus lradius
    lradius lwrist
    lwrist lhand lthumb
    lhand lfingers
    rclavicle rhumerus
    rhumerus rradius
    rradius rwrist
    rwrist rhand rthumb
    rhand rfingers
  end

#!OML:ASF I:\Actors\actors\Patient Classification 1\Patient 1\Session 1\Subject1.ASF
:FULLY-SPECIFIED
:DEGREES
1
root 0.693099 17.4575 9.34887 8.89383 -0.74432 -10.5695
lowerback -0.298629 -0.12396 7.05645
upperback -8.63315 0.383676 3.11162
thorax -8.96625 -0.204908 -0.661609
lowerneck -2.64613 -12.3592 -10.7288
upperneck 15.323 -17.5377 8.8862
head 6.84266 -8.5935 3.12446
rclavicle 8.77137e-015 -7.95139e-016
rhumerus -51.9195 -30.3411 -55.9337
rradius 27.9706
rwrist 40.9611
rhand 8.05209 -29.7319
rfingers 7.12502
rthumb 33.2766 -56.6734
lclavicle 8.77137e-015 -7.95139e-016
lhumerus -49.5849 23.8353 69.8797
lradius 26.1911
lwrist -20.1388
lhand -15.7167 -12.9736
lfingers 7.12502
lthumb 10.4734 16.7455
rfemur -3.33484 25.2907 27.6533
rtibia 2.4212
rfoot -11.1441 -24.3776
rtoes 1.33843
lfemur 7.24462 -45.8152 -11.6625
ltibia -4.89671
lfoot -22.26 52.4892
ltoes 8.34725
2
root 0.687572 17.4532 9.34906 9.09324 -0.762643 -10.6105
lowerback -0.488429 -0.0982337 7.02021
upperback -8.7059 0.403848 3.13472
thorax -8.93344 -0.191637 -0.617977
lowerneck -2.61493 -12.3781 -10.7035
upperneck 15.3533 -17.5622 8.83102
head 6.84225 -8.6083 3.10261
rclavicle -1.73937e-014 8.94531e-015
rhumerus -51.861 -30.2927 -55.9632
rradius 27.8434
rwrist 40.9261
rhand 7.92278 -29.6227
rfingers 7.12502
rthumb 33.1536 -56.5903
lclavicle -1.73937e-014 8.94531e-015
lhumerus -49.558 23.6931 69.9348
lradius 26.1475
lwrist -20.0737
lhand -15.6317 -13.3039
lfingers 7.12502
lthumb 10.5554 16.411
rfemur -3.58248 25.5119 27.6288
rtibia 2.46646
rfoot -11.1458 -24.5402
rtoes -0.0436089
lfemur 6.99557 -45.9202 -11.3772
ltibia -4.93245
lfoot -22.9226 52.4598
ltoes 9.12309
3
root 0.683606 17.448 9.35164 9.26976 -0.786697 -10.6375
lowerback -0.699718 -0.0790517 6.9897
upperback -8.75758 0.411957 3.15822
thorax -8.86535 -0.183492 -0.576775
lowerneck -2.62005 -12.4023 -10.6933
upperneck 15.4085 -17.5894 8.76198
head 6.8565 -8.62448 3.07517
rclavicle 1.59028e-015 3.97569e-015
rhumerus -51.849 -30.2573 -55.979
rradius 27.8305
rwrist 40.9234
rhand 7.91857 -29.571
rfingers 7.12502
rthumb 33.1496 -56.5395
lclavicle 1.59028e-015 3.97569e-015
lhumerus -49.5128 23.6065 69.9916
lradius 26.0865
lwrist -20.0315
lhand -15.7117 -13.4475
lfingers 7.12502
lthumb 10.4783 16.2713
rfemur -3.78193 25.6084 27.5989
rtibia 2.47917
rfoot -11.0792 -24.6305
rtoes -3.27748
lfemur 6.75768 -45.8866 -11.1384
ltibia -4.95173
lfoot -22.9845 52.4701
ltoes 9.22164
4
root 0.679967 17.443 9.35328 9.44979 -0.81365 -10.6357
lowerback -0.921398 -0.0622846 6.92641
upperback -8.79559 0.413103 3.17443
thorax -8.77579 -0.175917 -0.525095
lowerneck -2.63491 -12.4199 -10.7025
upperneck 15.4468 -17.6142 8.75354
head 6.87405 -8.63636 3.06902
rclavicle -1.31695e-014 -1.88845e-014
rhumerus -51.8236 -30.1932 -56.0562
rradius 27.8811
rwrist 40.8792
rhand 8.02515 -29.6452
rfingers 7.12502
rthumb 33.2509 -56.5921
lclavicle -1.31695e-014 -1.88845e-014
lhumerus -49.459 23.575 70.0288
lradius 26.0773
lwrist -20.0024
lhand -15.8071 -13.3493
lfingers 7.12502
lthumb 10.3862 16.3742
rfemur -3.99268 25.6965 27.5256
rtibia 2.50286
rfoot -11.0834 -24.6854
rtoes -4.77898
lfemur 6.51093 -45.8738 -10.9378
ltibia -4.96574
lfoot -22.9376 52.5361
ltoes 9.07432
5
root 0.668183 17.4384 9.35594 9.91835 -0.972961 -10.2806
lowerback -1.47652 0.0273309 6.35202
upperback -8.91583 0.459289 3.07632
thorax -8.5699 -0.111867 -0.315039
lowerneck -2.47895 -12.42 -10.6806
upperneck 15.374 -17.6483 8.892
head 6.83805 -8.64939 3.11704
rclavicle 1.00635e-014 -3.24019e-014
rhumerus -51.8162 -30.228 -56.1257
rradius 27.7823
rwrist 40.6118
rhand 8.01503 -29.7538
rfingers 7.12502
rthumb 33.2413 -56.7028
lclavicle 1.00635e-014 -3.24019e-014
lhumerus -49.3137 23.2259 70.2913
lradius 26.1756
lwrist -19.4952
lhand -15.9789 -12.517
lfingers 7.12502
lthumb 10.2205 17.2147
rfemur -4.60467 26.0123 26.871
rtibia 2.57808
rfoot -11.1883 -24.7929
rtoes -2.85502
lfemur 5.88355 -46.1831 -10.8676
ltibia -4.94053
lfoot -23.5437 52.8743
ltoes 9.65088
6
root 0.662069 17.4493 9.37917 10.2975 -0.836878 -10.1595
lowerback -2.27329 0.0787755 6.18053
upperback -8.99077 0.448101 2.96715
thorax -8.18253 -0.101998 -0.336714
lowerneck -2.12148 -12.3997 -10.6384
upperneck 15.2167 -17.6879 9.15689
head 6.75075 -8.66498 3.2164
rclavicle 5.11871e-015 -1.98785e-015
rhumerus -51.895 -30.3609 -56.1356
rradius 27.5633
rwrist 40.1187
rhand 7.88459 -29.8527
rfingers 7.12502
rthumb 33.1173 -56.8281
lclavicle 5.11871e-015 -1.98785e-015
lhumerus -49.1304 22.5489 70.7416
lradius 26.3142
lwrist -18.5779
lhand -16.2886 -11.2617
lfingers 7.12502
lthumb 9.92174 18.4845
rfemur -4.88525 25.9146 26.5991
rtibia 2.40226
rfoot -11.197 -24.7743
rtoes 0.27381
lfemur 5.3853 -46.4953 -10.6422
ltibia -4.95373
lfoot -23.6218 53.1025
ltoes 9.61203
7
root 0.657533 17.4533 9.38698 10.4827 -0.825164 -9.99206
lowerback -2.59497 0.103662 5.94825
upperback -9.04188 0.446122 2.89497
thorax -8.04748 -0.087031 -0.284439
lowerneck -1.93525 -12.3829 -10.6353
upperneck 15.1289 -17.7005 9.31294
head 6.70606 -8.66949 3.27732
rclavicle -1.10822e-014 3.24019e-014
rhumerus -51.905 -30.4009 -56.1873
rradius 27.4854
rwrist 39.8043
rhand 7.89065 -30.0331
rfingers 7.12502
rthumb 33.1231 -57.0073
lclavicle -1.10822e-014 3.24019e-014
lhumerus -49.0453 22.2772 70.899
lradius 26.3347
lwrist -18.1897
lhand -16.442 -10.6739
lfingers 7.12502
lthumb 9.77374 19.0793
rfemur -5.06908 25.933 26.324
rtibia 2.35554
rfoot -11.1802 -24.8196
rtoes 1.75881
lfemur 5.11073 -46.625 -10.6354
ltibia -4.92548
lfoot -23.6932 53.1979
ltoes 9.63213
8
root 0.656944 17.4532 9.38655 10.4982 -0.821574 -9.96966
lowerback -2.60322 0.0924698 5.91501
upperback -9.0457 0.430423 2.90429
thorax -8.04738 -0.0920549 -0.255476
lowerneck -1.9663 -12.3778 -10.654
upperneck 15.1558 -17.692 9.31241
head 6.72074 -8.66485 3.27799
rclavicle 1.45113e-014 2.18663e-015
rhumerus -51.8443 -30.3732 -56.2705
rradius 27.533
rwrist 39.7326
rhand 7.96579 -30.2296
rfingers 7.12502
rthumb 33.1945 -57.1885
lclavicle 1.45113e-014 2.18663e-015
lhumerus -49.0576 22.384 70.8103
lradius 26.3045
lwrist -18.2882
lhand -16.4505 -10.5579
lfingers 7.12502
lthumb 9.7655 19.1957
rfemur -5.09051 25.9613 26.29
rtibia 2.35122
rfoot -11.1623 -24.8846
rtoes 1.68326
lfemur 5.08544 -46.6674 -10.6424
ltibia -4.9082
lfoot -23.8756 53.1704
ltoes 9.92406
9
root 0.657572 17.454 9.38646 10.4962 -0.831445 -9.97767
lowerback -2.60986 0.0990224 5.93995
upperback -9.03985 0.438893 2.90529
thorax -8.03692 -0.0893335 -0.26872
lowerneck -2.02822 -12.3798 -10.6439
upperneck 15.2077 -17.6914 9.28975
head 6.74488 -8.66236 3.26432
rclavicle -8.19987e-015 -2.44505e-014
rhumerus -51.8096 -30.3862 -56.3457
rradius 27.5696
rwrist 39.697
rhand 7.86082 -30.2683
rfingers 7.12502
rthumb 33.0947 -57.2485
lclavicle -8.19987e-015 -2.44505e-014
lhumerus -49.0767 22.4315 70.753
lradius 26.3023
lwrist -18.3615
lhand -16.4193 -10.5018
lfingers 7.12502
lthumb 9.79566 19.2503
rfemur -5.08248 25.9651 26.2998
rtibia 2.33673
rfoot -11.1032 -24.9084
rtoes 1.45155
lfemur 5.09856 -46.6728 -10.6455
ltibia -4.90228
lfoot -24.0391 53.1372
ltoes 10.1804
